<?xml version="1.0" encoding="UTF-8"?>
<!DOCTYPE svg PUBLIC "-//W3C//DTD SVG 1.1//EN" "http://www.w3.org/Graphics/SVG/1.1/DTD/svg11.dtd">
<!-- Creator: CorelDRAW -->
<svg xmlns="http://www.w3.org/2000/svg" xml:space="preserve" width="100%" height="100%" shape-rendering="geometricPrecision" text-rendering="geometricPrecision" image-rendering="optimizeQuality" fill-rule="evenodd" clip-rule="evenodd"
viewBox="0 0 18.9647 16.2679"
 xmlns:xlink="http://www.w3.org/1999/xlink">
 <g id="Layer_x0020_1">
  <metadata id="CorelCorpID_0Corel-Layer"/>
  <path fill="#282A14" d="M3.79353 3.61071c0,-0.0743 -0.04516,-0.14859 -0.10343,-0.17773l-1.68844 -0.97751c-0.02914,-0.01457 -0.05973,-0.02914 -0.08887,-0.02914l-0.01457 -1e-005c-0.02913,0 -0.05973,0.01457 -0.08886,0.02914l-1.70593 0.97752c-0.05973,0.02914 -0.10343,0.10343 -0.10343,0.17773l0 2.62225c0,0.02914 0.01457,0.0743 0.04516,0.08887 0.03059,0.01457 0.0743,0.01457 0.10343,0l1.00812 -0.57835c0.05973,-0.04516 0.10343,-0.10343 0.10343,-0.17773l0 -1.22955c0,-0.0743 0.04516,-0.13403 0.10343,-0.17773l0.42976 -0.25203c0.02914,-0.01457 0.0743,-0.02913 0.10343,-0.02913 0.02914,0 0.0743,0.01456 0.10343,0.02913l0.42976 0.25203c0.05973,0.02914 0.10343,0.10343 0.10343,0.17773l0 1.22955c0,0.0743 0.04516,0.13403 0.10343,0.17773l1.00811 0.57835c0.02914,0.01457 0.0743,0.01457 0.10344,0 0.02913,-0.01457 0.04516,-0.04516 0.04516,-0.08887l1e-005 -2.62225z"/>
  <path fill="#282A14" d="M12.817 0.01093c-0.02914,-0.01457 -0.0743,-0.01457 -0.10343,0 -0.02913,0.01457 -0.04516,0.04516 -0.04516,0.08887l0 2.59312c0,0.02914 -0.01457,0.04516 -0.02914,0.05973 -0.01457,0.01457 -0.04516,0.01457 -0.0743,0l-0.42976 -0.23746c-0.05973,-0.02914 -0.14859,-0.02914 -0.20687,0l-1.68844 0.97752c-0.05973,0.02914 -0.10343,0.10343 -0.10343,0.17773l0 1.95649c0,0.0743 0.04516,0.13403 0.10343,0.17773l1.68844 0.97752c0.05973,0.02913 0.1486,0.02913 0.20687,0l1.68844 -0.97752c0.05973,-0.02914 0.10344,-0.10343 0.10344,-0.17773l0 -4.87593c0,-0.0743 -0.04516,-0.1486 -0.10343,-0.17773l-1.00666 -0.56234zm-0.16316 4.96336c0,0.01457 -0.01457,0.02913 -0.02914,0.04516l-0.57835 0.34089c-0.01457,0.01457 -0.02914,0.01457 -0.04517,0l-0.57835 -0.34089c-0.01457,-0.01457 -0.02914,-0.02914 -0.02914,-0.04516l1e-005 -0.66723c0,-0.01457 0.01457,-0.02913 0.02913,-0.04516l0.57836 -0.34089c0.01457,-0.01457 0.02914,-0.01457 0.04516,0l0.57836 0.34089c0.01457,0.01457 0.02913,0.02914 0.02913,0.04516l0 0.66723z"/>
  <path fill="#282A14" d="M18.8613 4.27793c0.05973,-0.02914 0.10343,-0.10343 0.10343,-0.17773l0 -0.47346c0,-0.0743 -0.04516,-0.13403 -0.10343,-0.17773l-1.67387 -0.96296c-0.05973,-0.02914 -0.1486,-0.02914 -0.20687,0l-1.68844 0.97752c-0.05973,0.02914 -0.10343,0.10343 -0.10343,0.17773l0 1.95649c0,0.0743 0.04516,0.1486 0.10343,0.17773l1.67387 0.96296c0.05973,0.02913 0.13403,0.02913 0.20687,0l1.02268 -0.56233c0.02914,-0.01457 0.05973,-0.04516 0.05973,-0.08887 0,-0.02914 -0.01457,-0.0743 -0.04516,-0.08887l-1.70446 -0.97751c-0.02914,-0.01457 -0.04516,-0.05973 -0.04516,-0.08887l-1e-005 -0.6104c0,-0.02914 0.01457,-0.0743 0.04516,-0.08887l0.5332 -0.31175c0.02913,-0.01457 0.07429,-0.01457 0.10343,0l0.53319 0.31175c0.02914,0.01457 0.04516,0.05973 0.04516,0.08887l0 0.47347c0,0.02914 0.01457,0.0743 0.04516,0.08887 0.03059,0.01456 0.0743,0.01456 0.10343,0l0.99209 -0.60604z"/>
  <path fill="#F3F9E7" d="M6.86012 2.47003c0.05973,-0.02914 0.14859,-0.02914 0.20687,0l1.68989 0.97752c0.05973,0.02913 0.10343,0.10343 0.10343,0.17773l0 1.95649c0,0.0743 -0.04516,0.13403 -0.10343,0.17773l-1.68844 0.97752c-0.05973,0.02913 -0.1486,0.02913 -0.20687,0l-1.68989 -0.97752c-0.05973,-0.02913 -0.10344,-0.10343 -0.10344,-0.17773l0 -1.95649c0,-0.0743 0.04516,-0.13403 0.10343,-0.17773l1.68845 -0.97752z"/>
  <path fill="#F3F9E7" d="M17.0534 4.18906c0.01457,0 0.02914,0 0.04516,0l0.32633 0.1923c0.01457,0 0.01457,0.01457 0.01457,0.02914l0 0.37003c0,0.01457 -0.01457,0.02914 -0.01457,0.02914l-0.32633 0.1923c-0.01457,0 -0.02914,0 -0.04516,0l-0.32633 -0.1923c-0.01457,0 -0.01457,-0.01457 -0.01457,-0.02914l0 -0.37003c0,-0.01457 0.01457,-0.02914 0.01457,-0.02914l0.32633 -0.1923z"/>
  <path fill="#F3F9E7" d="M0.77819 14.1931c-0.22664,-0.13088 -0.35751,-0.38944 -0.35751,-0.648l0 -4.02848c0,-0.25856 0.13087,-0.52031 0.35751,-0.64799l3.50495 -2.01424c0.22664,-0.13087 0.52032,-0.13087 0.74695,0l3.50495 2.01424c0.22664,0.13087 0.35752,0.38943 0.35752,0.64799l0 4.02528c0,0.25856 -0.13088,0.52032 -0.35752,0.648l-3.50495 2.01423c-0.16917,0.03191 -0.26494,0.06383 -0.39581,0.06383 -0.13087,0 -0.25856,-0.03192 -0.35751,-0.09895l-3.49858 -1.97591zm3.82736 1.42367c0.03192,0.03192 0.06384,0.03192 0.09895,0l3.50495 -2.01423c0.03192,-0.03192 0.06385,-0.06385 0.06385,-0.09896l1e-005 -3.98696c0,-0.03192 -0.03192,-0.06384 -0.06385,-0.09895l-3.50495 -2.01423c-0.03192,-0.03193 -0.06384,-0.03193 -0.09895,0l-3.50495 2.01423c-0.03193,0.03192 -0.06385,0.06384 -0.06385,0.09895l0 4.02528c0,0.03192 0.03192,0.06385 0.06385,0.09896l3.50494 1.97591z"/>
  <polygon fill="#F3F9E7" fill-rule="nonzero" points="2.1727,12.3309 2.1727,9.87079 1.87664,9.91308 1.87664,12.3309 "/>
  <path id="1" fill="#F3F9E7" fill-rule="nonzero" d="M3.03268 12.3309l0 -1.71643 -0.29606 0 0 1.71643 0.29606 0zm0 -1.99134l0 -0.42646 -0.29606 0 0 0.42646 0.29606 0z"/>
  <path id="12" fill="#F3F9E7" fill-rule="nonzero" d="M5.96506 12.3309l0 -1.31463c0.00058,-0.0887 -0.01116,-0.16566 -0.03584,-0.23086 -0.02408,-0.0652 -0.06402,-0.11572 -0.11865,-0.15155 -0.05463,-0.03583 -0.12806,-0.05404 -0.21911,-0.05463 -0.05404,0 -0.11161,0.00529 -0.1727,0.01468 -0.06109,0.00999 -0.12277,0.02291 -0.18562,0.03995 -0.06227,0.01703 -0.12395,0.03642 -0.18328,0.05815 -0.05991,0.02232 -0.11513,0.04582 -0.16682,0.07049 -0.02409,-0.05874 -0.06286,-0.10338 -0.11631,-0.1351 -0.05345,-0.03172 -0.12394,-0.04758 -0.21147,-0.04817 -0.05169,0 -0.1075,0.00529 -0.16741,0.01586 -0.05992,0.00998 -0.12101,0.02408 -0.18328,0.04112 -0.06226,0.01762 -0.12218,0.037 -0.18033,0.05874 -0.05874,0.02173 -0.11161,0.04464 -0.15978,0.06755l-0.0282 -0.14803 -0.23966 0 0 1.71643 0.29606 0 0 -1.29701c0.0464,-0.02409 0.09633,-0.04641 0.1492,-0.06697 0.05287,-0.02114 0.10632,-0.03935 0.15919,-0.05521 0.05287,-0.01586 0.1028,-0.0282 0.14862,-0.03701 0.04581,-0.00881 0.08517,-0.01351 0.11748,-0.01351 0.05463,-0.00059 0.09575,0.01175 0.12394,0.037 0.02761,0.02526 0.04171,0.0658 0.04171,0.1216l0 1.31111 0.29606 0 0 -1.29701c0.0464,-0.02409 0.09516,-0.04641 0.14744,-0.06697 0.05169,-0.02114 0.10397,-0.03935 0.15566,-0.05521 0.05228,-0.01586 0.10163,-0.0282 0.14803,-0.03701 0.04641,-0.00881 0.08753,-0.01351 0.12336,-0.01351 0.05463,-0.00059 0.09633,0.01175 0.12394,0.037 0.02761,0.02526 0.04171,0.0658 0.04171,0.1216l0 1.31111 0.29606 0z"/>
  <path id="123" fill="#F3F9E7" fill-rule="nonzero" d="M7.7273 11.1361c0.00059,-0.09164 -0.01058,-0.17211 -0.0329,-0.24143 -0.02232,-0.0699 -0.05874,-0.12806 -0.10926,-0.17446 -0.05051,-0.047 -0.11748,-0.08165 -0.20148,-0.10574 -0.08341,-0.02349 -0.18621,-0.03524 -0.30839,-0.03524 -0.06168,0 -0.12571,0.00352 -0.1915,0.00998 -0.06638,0.00647 -0.13099,0.01469 -0.19502,0.02585 -0.06344,0.01116 -0.12277,0.02408 -0.1774,0.03818l0.03172 0.23614c0.04523,-0.00939 0.09751,-0.01879 0.15625,-0.02702 0.05874,-0.00881 0.11866,-0.01586 0.18093,-0.02114 0.06226,-0.00529 0.12159,-0.00823 0.1774,-0.00823 0.09222,-0.00059 0.16565,0.00881 0.22086,0.02702 0.05463,0.0188 0.09399,0.04876 0.11807,0.09164 0.0235,0.04229 0.03525,0.09927 0.03466,0.17035l0 0.26786 -0.45818 0c-0.11514,-0.00059 -0.21147,0.01469 -0.2896,0.04582 -0.07812,0.03172 -0.13687,0.08283 -0.17622,0.1539 -0.03936,0.07049 -0.05933,0.16507 -0.05933,0.28314 0,0.10162 0.01527,0.18914 0.0464,0.26257 0.03172,0.07343 0.08107,0.13041 0.14803,0.17035 0.06697,0.03995 0.15391,0.05992 0.26023,0.0605 0.10456,0 0.20442,-0.01409 0.29958,-0.0417 0.09516,-0.02702 0.18092,-0.06755 0.25729,-0.12042l0.01762 0.12688 0.25024 0 0 -1.1948zm-0.29606 0.8353c-0.04347,0.0282 -0.09046,0.05287 -0.14039,0.07402 -0.04934,0.02114 -0.09986,0.03759 -0.15155,0.04934 -0.0517,0.01175 -0.10221,0.01762 -0.15214,0.01762 -0.06932,0 -0.12219,-0.00822 -0.15684,-0.02467 -0.03525,-0.01703 -0.05875,-0.04347 -0.07049,-0.07989 -0.01117,-0.03642 -0.01704,-0.08341 -0.01586,-0.14215 -0.00059,-0.05698 0.00763,-0.1028 0.02408,-0.13628 0.01645,-0.03349 0.04288,-0.05757 0.07989,-0.07167 0.03642,-0.01468 0.08576,-0.02173 0.14626,-0.02114l0.43704 0 0 0.33482z"/>
  <path fill="#F3F9E7" fill-rule="nonzero" d="M13.1764 13.0244l0 -0.63161c0.00029,-0.04262 -0.00536,-0.07959 -0.01721,-0.11092 -0.01157,-0.03132 -0.03076,-0.05559 -0.05701,-0.07281 -0.02625,-0.01721 -0.06152,-0.02596 -0.10527,-0.02625 -0.02596,0 -0.05362,0.00254 -0.08297,0.00706 -0.02935,0.0048 -0.05899,0.01101 -0.08918,0.01919 -0.02992,0.00819 -0.05955,0.0175 -0.08806,0.02794 -0.02878,0.01073 -0.05531,0.02201 -0.08015,0.03387 -0.01157,-0.02822 -0.0302,-0.04967 -0.05588,-0.06491 -0.02568,-0.01524 -0.05955,-0.02286 -0.1016,-0.02315 -0.02483,0 -0.05164,0.00254 -0.08043,0.00762 -0.02879,0.0048 -0.05814,0.01158 -0.08805,0.01976 -0.02992,0.00847 -0.05871,0.01778 -0.08665,0.02822 -0.02822,0.01044 -0.05362,0.02145 -0.07676,0.03246l-0.01355 -0.07112 -0.11514 0 0 0.82465 0.14224 0 0 -0.62315c0.02229,-0.01157 0.04628,-0.02229 0.07168,-0.03217 0.0254,-0.01016 0.05108,-0.01891 0.07648,-0.02653 0.0254,-0.00762 0.04939,-0.01354 0.0714,-0.01778 0.02202,-0.00423 0.04093,-0.00649 0.05645,-0.00649 0.02625,-0.00028 0.046,0.00565 0.05955,0.01778 0.01326,0.01214 0.02004,0.03161 0.02004,0.05842l0 0.62992 0.14224 0 0 -0.62315c0.02229,-0.01157 0.04572,-0.02229 0.07083,-0.03217 0.02484,-0.01016 0.04996,-0.01891 0.07479,-0.02653 0.02512,-0.00762 0.04883,-0.01354 0.07112,-0.01778 0.0223,-0.00423 0.04205,-0.00649 0.05927,-0.00649 0.02624,-0.00028 0.04628,0.00565 0.05955,0.01778 0.01326,0.01214 0.02003,0.03161 0.02003,0.05842l0 0.62992 0.14224 0z"/>
  <path id="1" fill="#F3F9E7" fill-rule="nonzero" d="M13.5388 12.7366l0 -0.06942 0.49107 0 0 -0.17272c0.00028,-0.04318 -0.00452,-0.08326 -0.01411,-0.12079 -0.0096,-0.03754 -0.02625,-0.07056 -0.04939,-0.09906 -0.02314,-0.02851 -0.05475,-0.05109 -0.09511,-0.06717 -0.04008,-0.01609 -0.09059,-0.02427 -0.15127,-0.02456 -0.06124,0.00029 -0.11261,0.00819 -0.15409,0.02399 -0.04149,0.01581 -0.07479,0.03782 -0.09963,0.06604 -0.02483,0.02794 -0.0429,0.06068 -0.05362,0.09793 -0.01101,0.03698 -0.01637,0.07705 -0.01609,0.12023l0 0.24723c-0.00028,0.04656 0.00537,0.08861 0.01694,0.12587 0.01129,0.03725 0.02963,0.06914 0.05503,0.09539 0.0254,0.02653 0.05898,0.04657 0.10104,0.06068 0.04176,0.01411 0.09313,0.02116 0.15381,0.02116 0.03471,0 0.06942,-0.00197 0.10414,-0.00592 0.03471,-0.00395 0.06801,-0.00932 0.0999,-0.01637 0.03189,-0.00706 0.06096,-0.01552 0.08721,-0.02512l-0.01863 -0.11345c-0.04515,0.01213 -0.08946,0.02145 -0.13349,0.0285 -0.04403,0.00677 -0.08636,0.01044 -0.12728,0.01044 -0.04008,0 -0.07281,-0.00338 -0.0985,-0.01016 -0.02568,-0.00705 -0.04572,-0.01778 -0.06011,-0.03245 -0.01411,-0.01468 -0.02427,-0.03359 -0.02963,-0.05673 -0.00565,-0.02314 -0.00847,-0.05108 -0.00819,-0.08354zm0 -0.25569c-0.00028,-0.03838 0.00537,-0.07112 0.01722,-0.09765 0.01185,-0.02681 0.03104,-0.04713 0.05757,-0.06096 0.02653,-0.01383 0.06209,-0.02088 0.1064,-0.02088 0.04431,0 0.07902,0.00705 0.10414,0.02088 0.0254,0.01383 0.04318,0.03415 0.05362,0.06096 0.01044,0.02653 0.01524,0.05927 0.01496,0.09765l0 0.06773 -0.35391 0 0 -0.06773z"/>
  <path id="12" fill="#F3F9E7" fill-rule="nonzero" d="M14.3533 12.7366l0 -0.06942 0.49107 0 0 -0.17272c0.00028,-0.04318 -0.00452,-0.08326 -0.01411,-0.12079 -0.0096,-0.03754 -0.02625,-0.07056 -0.04939,-0.09906 -0.02314,-0.02851 -0.05475,-0.05109 -0.09511,-0.06717 -0.04008,-0.01609 -0.09059,-0.02427 -0.15127,-0.02456 -0.06124,0.00029 -0.11261,0.00819 -0.15409,0.02399 -0.04149,0.01581 -0.07479,0.03782 -0.09963,0.06604 -0.02483,0.02794 -0.0429,0.06068 -0.05362,0.09793 -0.01101,0.03698 -0.01637,0.07705 -0.01609,0.12023l0 0.24723c-0.00028,0.04656 0.00537,0.08861 0.01694,0.12587 0.01129,0.03725 0.02963,0.06914 0.05503,0.09539 0.0254,0.02653 0.05898,0.04657 0.10104,0.06068 0.04176,0.01411 0.09313,0.02116 0.15381,0.02116 0.03471,0 0.06942,-0.00197 0.10414,-0.00592 0.03471,-0.00395 0.06801,-0.00932 0.0999,-0.01637 0.03189,-0.00706 0.06096,-0.01552 0.08721,-0.02512l-0.01863 -0.11345c-0.04515,0.01213 -0.08946,0.02145 -0.13349,0.0285 -0.04403,0.00677 -0.08636,0.01044 -0.12728,0.01044 -0.04008,0 -0.07281,-0.00338 -0.0985,-0.01016 -0.02568,-0.00705 -0.04572,-0.01778 -0.06011,-0.03245 -0.01411,-0.01468 -0.02427,-0.03359 -0.02963,-0.05673 -0.00565,-0.02314 -0.00847,-0.05108 -0.00819,-0.08354zm0 -0.25569c-0.00028,-0.03838 0.00537,-0.07112 0.01722,-0.09765 0.01185,-0.02681 0.03104,-0.04713 0.05757,-0.06096 0.02653,-0.01383 0.06209,-0.02088 0.1064,-0.02088 0.04431,0 0.07902,0.00705 0.10414,0.02088 0.0254,0.01383 0.04318,0.03415 0.05362,0.06096 0.01044,0.02653 0.01524,0.05927 0.01496,0.09765l0 0.06773 -0.35391 0 0 -0.06773z"/>
  <path id="123" fill="#F3F9E7" fill-rule="nonzero" d="M15.4794 12.9008c-0.02597,0.00677 -0.04968,0.01185 -0.07112,0.01524 -0.02145,0.00338 -0.04177,0.00508 -0.06096,0.00508 -0.02512,0 -0.04375,-0.00339 -0.05588,-0.01016 -0.01214,-0.00678 -0.02004,-0.01694 -0.02371,-0.03048 -0.00367,-0.01355 -0.00536,-0.03048 -0.00508,-0.0508l0 -0.51139 0.22183 0 0.01185 -0.11853 -0.23368 0 0 -0.22352 -0.14224 0.02032 0 0.2032 -0.14563 0 0 0.11853 0.14563 0 0 0.53509c0,0.04544 0.00734,0.08213 0.0223,0.10979 0.01495,0.02766 0.03753,0.04741 0.06773,0.05983 0.03048,0.01242 0.06858,0.01863 0.11486,0.01834 0.03076,0 0.06068,-0.00282 0.09003,-0.00818 0.02963,-0.00536 0.05701,-0.01298 0.08269,-0.0223l-0.01862 -0.11006z"/>
  <path id="1234" fill="#F3F9E7" fill-rule="nonzero" d="M15.6843 12.1998l0 0.63161c-0.00028,0.04262 0.00564,0.07959 0.01722,0.11091 0.01157,0.03133 0.03076,0.0556 0.057,0.07282 0.02653,0.01721 0.06153,0.02596 0.10527,0.02624 0.02484,0 0.05165,-0.00254 0.08044,-0.00762 0.02878,-0.00479 0.05813,-0.01157 0.08805,-0.02003 0.02991,-0.00819 0.0587,-0.0175 0.08692,-0.02794 0.02794,-0.01045 0.05334,-0.02145 0.07649,-0.03246l0.01354 0.07112 0.11515 0 0 -0.82465 -0.14224 0 0 0.62314c-0.0223,0.01157 -0.04629,0.0223 -0.07169,0.03218 -0.0254,0.01016 -0.05108,0.01891 -0.07648,0.02653 -0.0254,0.00762 -0.0491,0.01354 -0.0714,0.01778 -0.02201,0.00423 -0.04092,0.00649 -0.05644,0.00649 -0.02625,0.00028 -0.04601,-0.00565 -0.05955,-0.01778 -0.01327,-0.01214 -0.02004,-0.03161 -0.02004,-0.05842l0 -0.62992 -0.14224 0z"/>
  <path id="12345" fill="#F3F9E7" fill-rule="nonzero" d="M17.2404 12.4352c0.00028,-0.08325 -0.01948,-0.14591 -0.05927,-0.18852 -0.03951,-0.04234 -0.09991,-0.06379 -0.18119,-0.06379 -0.05447,0.00029 -0.10498,0.00875 -0.15155,0.0254 -0.04657,0.01637 -0.08693,0.03839 -0.12107,0.06604l-0.01186 -0.0745 -0.12022 0 0 1.17856 0.14224 -0.02032 0 -0.34206c0.02229,0.00452 0.04713,0.00875 0.07422,0.0127 0.02709,0.00367 0.05447,0.00678 0.08241,0.00903 0.02794,0.00226 0.05419,0.00367 0.07874,0.00367 0.06406,-0.00028 0.11571,-0.01129 0.15522,-0.0333 0.03923,-0.02201 0.06802,-0.05306 0.0858,-0.09313 0.01806,-0.04008 0.02681,-0.08777 0.02653,-0.14281l0 -0.33697zm-0.50292 -0.02879c0.0206,-0.01834 0.04374,-0.03471 0.0697,-0.04967 0.02569,-0.01467 0.05278,-0.02653 0.08072,-0.03527 0.02822,-0.00875 0.05588,-0.01299 0.08326,-0.01327 0.03302,0 0.0587,0.0048 0.07732,0.01411 0.01863,0.00932 0.03161,0.02343 0.03895,0.04234 0.00734,0.0189 0.01101,0.04233 0.01073,0.07055l0 0.33697c0.00028,0.04967 -0.01016,0.08608 -0.03133,0.10951 -0.02117,0.02314 -0.05532,0.03471 -0.10245,0.03443 -0.01947,0 -0.04205,-0.00113 -0.06745,-0.00311 -0.0254,-0.00226 -0.05193,-0.00508 -0.07959,-0.00903 -0.02737,-0.00367 -0.05418,-0.00818 -0.07986,-0.01326l0 -0.4843z"/>
  <path fill="#F3F9E7" fill-rule="nonzero" d="M3.45994 12.8758c0.00032,-0.09419 -0.02203,-0.16508 -0.06705,-0.21329 -0.0447,-0.0479 -0.11303,-0.07216 -0.20499,-0.07216 -0.06162,0.00032 -0.11878,0.0099 -0.17146,0.02873 -0.05269,0.01852 -0.09835,0.04343 -0.13698,0.07472l-0.01341 -0.08429 -0.13603 0 0 1.33339 0.16093 -0.02299 0 -0.38699c0.02523,0.00511 0.05332,0.0099 0.08398,0.01437 0.03065,0.00415 0.06162,0.00766 0.09323,0.01022 0.03161,0.00255 0.06131,0.00415 0.08909,0.00415 0.07248,-0.00032 0.13091,-0.01277 0.17561,-0.03768 0.04439,-0.0249 0.07695,-0.06003 0.09707,-0.10537 0.02043,-0.04534 0.03033,-0.0993 0.03001,-0.16156l0 -0.38125zm-0.56899 -0.03257c0.02331,-0.02075 0.04949,-0.03927 0.07887,-0.05619 0.02905,-0.01661 0.05971,-0.03002 0.09132,-0.03992 0.03193,-0.00989 0.06322,-0.01468 0.09419,-0.015 0.03736,0 0.06642,0.00542 0.08749,0.01596 0.02107,0.01054 0.03576,0.0265 0.04406,0.0479 0.00831,0.02139 0.01246,0.04789 0.01214,0.07982l0 0.38125c0.00032,0.05619 -0.0115,0.09738 -0.03545,0.12388 -0.02394,0.02619 -0.06258,0.03928 -0.1159,0.03896 -0.02203,0 -0.04758,-0.00128 -0.07631,-0.00351 -0.02874,-0.00256 -0.05876,-0.00575 -0.09005,-0.01022 -0.03097,-0.00415 -0.0613,-0.00926 -0.09036,-0.01501l0 -0.54792z"/>
  <path id="1" fill="#F3F9E7" fill-rule="nonzero" d="M3.84502 13.2169l0 -0.07854 0.55558 0 0 -0.19542c0.00032,-0.04885 -0.00511,-0.09419 -0.01597,-0.13666 -0.01085,-0.04246 -0.02969,-0.07982 -0.05587,-0.11207 -0.02619,-0.03225 -0.06195,-0.05779 -0.10761,-0.07599 -0.04534,-0.0182 -0.10249,-0.02746 -0.17114,-0.02778 -0.06929,0.00032 -0.1274,0.00926 -0.17434,0.02714 -0.04694,0.01788 -0.08462,0.04278 -0.11271,0.07471 -0.0281,0.03161 -0.04854,0.06865 -0.06067,0.1108 -0.01245,0.04183 -0.01852,0.08717 -0.0182,0.13602l0 0.27971c-0.00032,0.05268 0.00607,0.10026 0.01916,0.14241 0.01277,0.04215 0.03352,0.07823 0.06226,0.10792 0.02874,0.03002 0.06673,0.05269 0.11431,0.06865 0.04726,0.01597 0.10537,0.02395 0.17402,0.02395 0.03927,0 0.07855,-0.00224 0.11782,-0.00671 0.03927,-0.00447 0.07695,-0.01053 0.11303,-0.01852 0.03608,-0.00798 0.06897,-0.01756 0.09867,-0.02841l-0.02108 -0.12836c-0.05109,0.01373 -0.10122,0.02426 -0.15103,0.03225 -0.04981,0.00766 -0.0977,0.01181 -0.144,0.01181 -0.04534,0 -0.08238,-0.00383 -0.11144,-0.01149 -0.02905,-0.00799 -0.05172,-0.02012 -0.06801,-0.03672 -0.01596,-0.01661 -0.02746,-0.038 -0.03352,-0.06418 -0.00639,-0.02619 -0.00958,-0.0578 -0.00926,-0.09452zm0 -0.28928c-0.00032,-0.04343 0.00606,-0.08047 0.01947,-0.11048 0.01341,-0.03033 0.03513,-0.05332 0.06514,-0.06897 0.03001,-0.01564 0.07025,-0.02363 0.12038,-0.02363 0.05013,0 0.0894,0.00799 0.11782,0.02363 0.02874,0.01565 0.04885,0.03864 0.06067,0.06897 0.01181,0.03001 0.01724,0.06705 0.01692,0.11048l0 0.07663 -0.4004 0 0 -0.07663z"/>
  <path id="12" fill="#F3F9E7" fill-rule="nonzero" d="M5.05963 12.5904c-0.03097,0.01277 -0.06162,0.02746 -0.09195,0.04374 -0.03066,0.01629 -0.06003,0.03353 -0.08813,0.05173 -0.02778,0.01788 -0.05332,0.03608 -0.07663,0.05396l-0.00958 -0.13027 -0.13986 0 0 0.93299 0.16093 0 0 -0.64371c0.02586,-0.0182 0.05364,-0.03672 0.08366,-0.0562 0.02969,-0.01947 0.06035,-0.03799 0.09132,-0.05619 0.03129,-0.0182 0.06162,-0.03417 0.09132,-0.04854l-0.02108 -0.14751z"/>
  <path id="123" fill="#F3F9E7" fill-rule="nonzero" d="M5.23398 12.6096l0 0.71459c-0.00032,0.04821 0.00638,0.09004 0.01947,0.12548 0.01309,0.03545 0.03481,0.06291 0.0645,0.08238 0.03002,0.01948 0.06961,0.02938 0.1191,0.0297 0.0281,0 0.05843,-0.00288 0.091,-0.00862 0.03257,-0.00543 0.06578,-0.01309 0.09962,-0.02267 0.03385,-0.00926 0.06642,-0.0198 0.09835,-0.03161 0.03161,-0.01182 0.06034,-0.02427 0.08653,-0.03672l0.01532 0.08046 0.13028 0 0 -0.93299 -0.16093 0 0 0.70501c-0.02522,0.01309 -0.05236,0.02522 -0.0811,0.0364 -0.02874,0.01149 -0.0578,0.02139 -0.08653,0.03001 -0.02874,0.00863 -0.05556,0.01533 -0.08079,0.02012 -0.0249,0.00479 -0.04629,0.00734 -0.06386,0.00734 -0.02969,0.00032 -0.05204,-0.00638 -0.06737,-0.02011 -0.015,-0.01373 -0.02267,-0.03576 -0.02267,-0.0661l0 -0.71267 -0.16092 0z"/>
  <g id="_126799928">
   <path id="_126795584" fill="#F3F9E7" d="M14.4606 10.9573c-0.05973,0 -0.118,-0.01457 -0.16316,-0.04516l-0.5332 -0.31176c-0.07429,-0.04516 -0.04516,-0.05973 -0.01456,-0.0743 0.10343,-0.02913 0.13402,-0.04516 0.23746,-0.10343 0.01456,0 0.02913,0 0.04516,0l0.41519 0.23746c0.01456,0.01457 0.02913,0.01457 0.04516,0l1.59957 -0.91924c0.01457,-0.01457 0.02914,-0.02914 0.02914,-0.04517l0 -1.81955c0,-0.01457 -0.01457,-0.02914 -0.02913,-0.04516l-1.59958 -0.91924c-0.01457,-0.01457 -0.02914,-0.01457 -0.04516,0l-1.59957 0.91924c-0.01457,0.01457 -0.02914,0.02914 -0.02914,0.04516l0 1.83704c0,0.01457 0.01457,0.02914 0.02914,0.04516l0.42975 0.25203c0.23746,0.118 0.3846,-0.01457 0.3846,-0.16316l0 -1.82248c0,-0.02913 0.01457,-0.04516 0.04516,-0.04516l0.20687 0c0.02913,0 0.04516,0.01457 0.04516,0.04516l0 1.82247c0,0.31176 -0.17773,0.50406 -0.47347,0.50406 -0.08887,0 -0.16316,0 -0.37003,-0.10343l-0.41519 -0.23746c-0.10343,-0.05973 -0.16316,-0.17773 -0.16316,-0.29573l0 -1.8385c0,-0.118 0.05973,-0.23746 0.16316,-0.29573l1.59958 -0.91924c0.10343,-0.05973 0.23746,-0.05973 0.34089,0l1.59957 0.91924c0.10343,0.05973 0.16316,0.17773 0.16316,0.29573l0 1.83704c0,0.118 -0.05973,0.23746 -0.16316,0.29573l-1.59957 0.91925c-0.07721,0.01456 -0.12092,0.02913 -0.18064,0.02913z"/>
   <path id="_126793880" fill="#F3F9E7" d="M15.0101 9.69861c-0.69636,0 -0.84495,-0.32633 -0.84495,-0.59292 0,-0.02914 0.01457,-0.04516 0.04516,-0.04516l0.20686 0c0.02914,0 0.04516,0.01457 0.04516,0.04516 0.02914,0.20687 0.118,0.31176 0.54776,0.31176 0.34089,0 0.47347,-0.0743 0.47347,-0.25203 0,-0.10343 -0.04516,-0.17773 -0.56233,-0.23746 -0.42976,-0.04516 -0.71092,-0.13403 -0.71092,-0.48949 0,-0.32633 0.26659,-0.51863 0.72548,-0.51863 0.50406,0 0.77066,0.17773 0.79979,0.56233 0,0.01457 0,0.02914 -0.01457,0.02914 -0.01457,0.01457 -0.01457,0.01457 -0.02914,0.01457l-0.20685 0c-0.01457,0 -0.04516,-0.01457 -0.04516,-0.02914 -0.04516,-0.22289 -0.16316,-0.29573 -0.50406,-0.29573 -0.37003,0 -0.41519,0.13403 -0.41519,0.22289 0,0.118 0.04516,0.1486 0.54776,0.22289 0.48949,0.05973 0.72549,0.16316 0.72549,0.50406 0.00146,0.34089 -0.27971,0.54776 -0.78376,0.54776z"/>
  </g>
 </g>
</svg>
